<svg width="96px" height="45px" viewBox="0 0 96 45" version="1.1" xmlns="http://www.w3.org/2000/svg" xmlns:xlink="http://www.w3.org/1999/xlink">
    <!-- Generator: Sketch 47.1 (45422) - http://www.bohemiancoding.com/sketch -->
    <desc>Created with Sketch.</desc>
    <defs>
        <polygon id="path-1" points="0.115335189 13.7435754 8.16403438 13.7435754 8.16403438 0.130774327 0.115335189 0.130774327"></polygon>
        <polygon id="path-3" points="5.45549823 0.126973808 5.45549823 9.5874621 0.0696855369 9.5874621 0.0696855369 0.126973808 5.45549823 0.126973808"></polygon>
    </defs>
    <g id="CATEGORIES" stroke="none" stroke-width="1" fill="none" fill-rule="evenodd">
        <g id="EJEMPLO-HOME" transform="translate(-464.000000, -1462.000000)">
            <g id="Page-1" transform="translate(464.351562, 1462.483537)">
                <path d="M36.9208812,36.5880763 C36.9187776,36.7241096 37.0222751,36.8393874 37.1500343,36.8393874 C37.2786349,36.8426129 37.3876018,36.7333655 37.3897054,36.5928445 C37.3897054,36.4554087 37.2885919,36.346582 37.1597109,36.3437772 C37.027464,36.3405517 36.9229848,36.4520429 36.9208812,36.5880763 C36.9208812,36.5880763 36.9229848,36.4520429 36.9208812,36.5880763 L36.9208812,36.5880763 Z M34.1565994,33.9814249 C28.6995585,32.4887043 30.0614346,41.5779758 34.2481765,38.2548354 C33.9604028,36.7140123 35.8041455,36.1851651 35.8512664,37.2643163 C35.8163465,37.7865722 35.8436934,38.6336252 36.4384536,38.6738742 C37.0085315,38.7225377 37.3933516,38.0167069 36.759885,37.9262518 C34.3031508,37.0615284 37.0775299,33.1676089 38.528599,36.3674779 C39.1501452,36.3802398 39.6993272,36.5928445 40.0531542,37.1459533 C40.0977507,36.871222 40.631927,36.5510528 41.0439538,36.6699768 L41.0227775,38.0394259 C40.6071044,38.0586388 40.2852523,38.2598841 40.2881974,38.7375434 L40.2682832,40.1026451 L39.1326151,40.0841333 L39.1528098,38.7744267 C39.1577182,38.4053135 38.9155227,38.1545634 38.3966326,38.156106 C38.3820476,39.2669516 36.7699823,40.732185 35.0539988,39.5816514 C28.1888024,44.0884222 26.547567,31.196668 34.1811415,32.4487358 L34.1565994,33.9814249 Z M44.9708299,36.7699683 C44.8106751,37.0023469 44.767481,37.2592676 44.8737834,37.3410279 C44.9785431,37.4223674 45.195916,37.2972728 45.3559304,37.0653149 C45.515384,36.8326558 45.5573159,36.573912 45.4543793,36.4953773 C45.3468148,36.4134768 45.1304236,36.5356263 44.9708299,36.7699683 C44.9708299,36.7699683 45.1304236,36.5356263 44.9708299,36.7699683 L44.9708299,36.7699683 Z M43.3356249,33.7510096 L43.0554242,36.923672 L43.4431894,36.9288609 C45.4452637,32.7745146 49.2359662,36.7796449 45.0468402,38.6260522 C45.5908334,39.4299111 46.4223197,39.1003458 47.0907062,38.603193 L47.0664446,40.1378455 C46.2275256,40.9994835 44.0946068,40.9240341 43.4799324,38.9183135 C43.2800896,38.335053 42.9440732,38.453416 42.9537498,38.6479297 L42.9290675,40.3045915 L41.6739144,40.2799092 L41.705749,38.0889308 L41.4106829,38.0723824 L41.4315787,36.7333655 L41.8572088,36.7395361 L42.0858009,33.7446988 L43.3356249,33.7510096 Z" id="Fill-1" fill="#A09F9F"></path>
                <g id="Group-5" transform="translate(48.102514, 30.270085)">
                    <mask id="mask-2" fill="white">
                        <use xlink:href="#path-1"></use>
                    </mask>
                    <g id="Clip-4"></g>
                    <path d="M1.49966248,9.92699853 C1.45688911,10.7706858 1.54173465,11.4596877 1.68141426,11.4689435 C1.82011218,11.4769373 1.96820621,10.8013985 2.00873574,9.95743073 C2.04982622,9.11332277 1.96820621,8.42600376 1.82530108,8.41604668 C1.68688364,8.40987609 1.54173465,9.08275033 1.49966248,9.92699853 C1.49966248,9.92699853 1.54173465,9.08275033 1.49966248,9.92699853 L1.49966248,9.92699853 Z M2.72971248,0.130774327 L3.0416075,5.14816103 C3.68895795,5.07453473 4.74539013,5.25684747 5.24254293,6.49993984 C5.82468151,5.68682504 7.97597179,5.20089148 8.16403438,8.24341054 L8.13823012,9.96514396 L6.69024628,9.945931 L6.71717247,8.19292394 C6.71717247,7.2340992 5.68233734,7.21488624 5.65793548,8.14510191 L5.62694232,10.3090138 L4.256792,10.288118 L4.16395274,7.7118988 C4.07335734,6.91757624 2.91875676,6.43304509 3.18549432,7.55679274 C3.2310725,8.02645839 3.89651398,13.5499733 1.59572727,13.7436455 C-0.522606466,13.6014416 -0.271716095,7.91132088 1.7379312,5.83646172 L1.39672591,0.150127525 L2.72971248,0.130774327 Z" id="Fill-3" fill="#A09F9F" mask="url(#mask-2)"></path>
                </g>
                <path d="M26.4348837,36.3767618 C26.3705133,36.8692867 26.4322192,37.2859414 26.5700757,37.3088006 C26.7107369,37.3245075 26.8777635,36.9444556 26.9425546,36.452071 C27.0060836,35.9587047 26.9456399,35.5441536 26.80582,35.5232577 C26.668244,35.5026424 26.4995346,35.8860601 26.4348837,36.3767618 C26.4348837,36.3767618 26.4995346,35.8860601 26.4348837,36.3767618 M23.001374,36.9155661 C22.9985692,37.1040494 23.1381085,37.2549482 23.3145312,37.2592957 C23.491655,37.2625212 23.636243,37.1107809 23.6415722,36.9235598 C23.6446575,36.7395641 23.5042767,36.586141 23.3271528,36.5816533 C23.1480656,36.5781473 23.0045995,36.727223 23.001374,36.9155661 C23.001374,36.9155661 23.0045995,36.727223 23.001374,36.9155661 M22.964631,38.280808 C23.3544997,39.0427349 24.4287425,38.9504567 25.3785918,38.3350811 C24.4572113,31.7915965 30.1795873,32.051883 27.3294783,38.5304362 C27.0513813,38.8974457 27.9817372,39.0094979 28.5321814,38.5270704 L28.5122672,39.8404233 C27.5448878,40.5058648 26.5296864,40.1488123 26.1353299,39.6885427 C23.8515123,41.2630236 20.84209,40.2304323 21.3901501,37.2549482 C19.3455829,33.003275 22.9696796,31.0833817 25.1637433,32.1339237 L25.1363964,33.8564986 C23.4052668,32.9938789 22.0168852,34.2577269 22.4468628,35.7956049 C24.7747159,34.013568 26.2957651,38.528613 22.964631,38.280808" id="Fill-6" fill="#A09F9F"></path>
                <polygon id="Fill-8" fill="#A09F9F" points="70.8419185 33.5593429 71.5483102 34.8426843 68.7408343 36.6837624 67.8775134 35.5217291"></polygon>
                <path d="M66.1717955,38.0664923 C66.17446,37.767219 66.3318099,37.5258649 66.516647,37.5279686 C66.7055511,37.5311941 66.8522427,37.7750724 66.8459319,38.0739251 C66.8435478,38.3790885 66.6883015,38.6165158 66.501501,38.6128696 C66.3142799,38.6113269 66.1638018,38.3621194 66.1717955,38.0664923 C66.17446,37.767219 66.1717955,38.0664923 66.1717955,38.0664923 M59.133402,43.8759577 C60.8599036,44.0370941 61.1206108,42.2358443 61.0089793,41.1541688 L62.6018316,39.9876478 C63.1301178,41.0775975 65.4306241,40.9703135 66.5287077,40.2782263 C66.9870139,40.66515 68.1525532,40.494337 68.5183006,40.1701008 L71.7816986,38.1178204 C72.7580534,37.4926279 73.0158155,38.4959089 72.7009755,38.8449677 C72.2151821,39.3579677 71.2936614,39.6412536 71.0830201,39.6969291 L71.0646485,41.2273744 C74.7473658,41.0983531 75.5032624,36.387953 72.8263505,36.3963674 C71.3961772,36.2812299 69.0370505,38.4848299 67.8555237,38.7916763 C69.2377347,35.3793429 63.7101528,35.1353243 64.9765251,39.3613335 C64.405746,39.6233028 63.9042458,39.412381 63.7020189,39.0749622 C64.9573122,37.3741247 65.4874215,34.6463054 63.4638904,34.2576988 C62.2264076,34.0289664 60.9528831,36.2812299 61.8682332,39.0062443 C61.5932215,39.1246074 61.0377286,39.3069201 61.0377286,39.3069201 L61.0657767,37.3218149 L59.7096505,37.2972728 C59.3307205,38.3602963 58.3296833,38.9066735 58.1497547,38.6995382 C57.9426193,37.9399953 58.9003222,37.1361364 60.7367724,37.0438581 L60.7562658,35.5232297 C58.3782065,35.6077947 56.8220972,36.9078248 56.565457,38.3959174 C56.4818736,40.5692254 58.35689,40.4671303 59.5190635,39.6122238 L59.5138746,40.089743 C57.2534772,40.9529236 57.260349,43.6780783 59.133402,43.8759577 C59.133402,43.8759577 57.260349,43.6780783 59.133402,43.8759577 M62.8744593,36.7140123 C62.9428967,36.2507977 63.1072586,35.8931843 63.2417493,35.9123972 C63.3752584,35.9372198 63.4299522,36.3304544 63.3591307,36.7967542 C63.2908335,37.2592676 63.1274533,37.6192652 62.9919809,37.5950035 C62.8570695,37.5738272 62.8047597,37.176105 62.8744593,36.7140123 C62.9428967,36.2507977 62.8744593,36.7140123 62.8744593,36.7140123 M59.0913298,42.0094961 C59.0946956,41.8003974 59.2300277,41.6336513 59.3896215,41.6354745 C59.5503372,41.6371574 59.6794987,41.8079704 59.675011,42.0172093 C59.6709441,42.2265884 59.5375753,42.3929138 59.3772803,42.3915114 C59.2164244,42.389548 59.0878238,42.218735 59.0913298,42.0094961 C59.0946956,41.8003974 59.0913298,42.0094961 59.0913298,42.0094961" id="Fill-10" fill="#A09F9F"></path>
                <path d="M46.7362202,6.84933518 C48.7353494,4.18378276 52.8501478,3.34528442 55.12499,3.08261384 L55.1137708,2.98542713 C52.8233619,3.24978059 48.6791129,4.09571168 46.6578257,6.79071462 L46.7362202,6.84933518 Z" id="Fill-12" fill="#548292"></path>
                <path d="M46.70698,6.78367455 L46.7292783,6.80036318 C48.7335964,4.15991381 52.8067434,3.31861066 55.0860733,3.05187311 L55.082988,3.02424572 C52.7991704,3.29154423 48.7178895,4.13467051 46.70698,6.78367455 L46.70698,6.78367455 Z M46.7433023,6.89839133 L46.6086714,6.7976986 L46.6297074,6.76965049 C48.6589884,4.06398927 52.8137554,3.21553385 55.1097739,2.95047918 L55.1445536,2.94655244 L55.1639068,3.11343872 L55.1289869,3.11750569 C52.8597543,3.37947507 48.7554739,4.21530884 46.7643384,6.87034322 L46.7433023,6.89839133 Z" id="Fill-14" fill="#548292"></path>
                <path d="M48.2359247,5.33942111 C48.2359247,5.33942111 48.5607219,5.56170241 49.72556,5.39944407 C50.8903981,5.23732598 51.925093,5.40771827 52.3309492,6.21227839 C52.3309492,6.21227839 50.4074096,6.83130024 49.016083,5.45820487" id="Fill-16" fill="#548292"></path>
                <path d="M49.7343391,5.46255233 C49.520332,5.49228333 49.333812,5.50925244 49.1716939,5.51696567 C50.3529402,6.5718552 51.8845074,6.26276499 52.2370722,6.17245007 C51.7696504,5.36508513 50.6250069,5.33843943 49.7343391,5.46255233 M48.9902226,5.52201433 C48.4061207,5.5253801 48.2104851,5.39916359 48.2001073,5.39201132 L48.2712092,5.28641018 C48.274575,5.28851379 48.6044208,5.49144188 49.716809,5.33633582 C51.088502,5.14504769 52.0118458,5.43843095 52.3878308,6.18366931 L52.4213483,6.25014334 L52.3503866,6.27286231 C52.3412709,6.27594761 51.9054032,6.41156023 51.3004054,6.41156023 C50.6219216,6.41141999 49.730833,6.2410277 48.9902226,5.52201433" id="Fill-18" fill="#548292"></path>
                <path d="M51.0242998,3.94845909 C51.0242998,3.94845909 51.349097,4.17060014 52.5139351,4.00848205 C53.6787732,3.84622372 54.7134681,4.016616 55.1193243,4.82131637 C55.1193243,4.82131637 53.1957847,5.44019798 51.8044581,4.06724285" id="Fill-20" fill="#548292"></path>
                <path d="M52.5227142,4.07150616 C52.3087071,4.10123716 52.1221871,4.11820627 51.960069,4.1259195 C53.1415958,5.18080903 54.6727423,4.87143835 55.0254473,4.78126366 C54.5580255,3.97403897 53.413382,3.94739326 52.5227142,4.07150616 M51.7785977,4.13096816 C51.1991237,4.13377297 50.9988602,4.00811743 50.9884824,4.00096516 L51.0595844,3.89536401 C51.0628099,3.89718714 51.3927959,4.10025548 52.5051841,3.94542989 C53.8767368,3.75470272 54.8002209,4.04738478 55.1762059,4.79262315 L55.2097234,4.85895693 L55.1387617,4.88181615 C55.129646,4.8847612 54.6936381,5.02037383 54.0885001,5.02037383 C53.4101565,5.02037383 52.5192082,4.84998154 51.7785977,4.13096816" id="Fill-22" fill="#548292"></path>
                <path d="M49.0560095,4.80455762 C49.0560095,4.80455762 49.3972148,4.60836107 49.7563709,3.48854016 C50.1156672,2.36871924 50.7182809,1.51044698 51.6191863,1.4938986 C51.6191863,1.4938986 51.3422112,3.49555218 49.5015537,4.15314019" id="Fill-24" fill="#548292"></path>
                <path d="M49.8170529,3.50801957 C49.7509996,3.71375248 49.6853671,3.88919343 49.6218381,4.03854963 C51.0848277,3.43186894 51.4706294,1.91811228 51.5424326,1.5610598 C50.6124974,1.63188129 50.091644,2.65171068 49.8170529,3.50801957 L49.8170529,3.50801957 Z M49.0234316,4.74984978 C49.0266571,4.74774617 49.3525762,4.53850724 49.6958851,3.46903269 C50.1188506,2.15063114 50.7835909,1.44550158 51.6181625,1.43021536 L51.69249,1.42881295 L51.6823927,1.50243925 C51.6794476,1.52291437 51.3812962,3.53200071 49.5477911,4.2040335 C49.2971812,4.73344163 49.0987408,4.85348755 49.0876618,4.85979838 L49.0234316,4.74984978 Z" id="Fill-26" fill="#548292"></path>
                <path d="M52.6841872,3.44788442 C52.6841872,3.44788442 53.0209048,3.24425512 53.3557992,2.11686121 C53.6905535,0.989607548 54.2742347,0.118292917 55.1747194,0.0821108509 C55.1747194,0.0821108509 54.9414993,2.08923382 53.1154269,2.78693063" id="Fill-28" fill="#548292"></path>
                <path d="M53.4167478,2.13512053 C53.3553224,2.34239609 53.2933361,2.5190992 53.2333131,2.66985781 C54.6826994,2.03134251 55.0354044,0.509311661 55.0993541,0.151137257 C54.1711018,0.242153384 53.672827,1.27320202 53.4167478,2.13512053 L53.4167478,2.13512053 Z M52.6504733,3.39391985 C52.6536989,3.391676 52.97499,3.17542505 53.2947385,2.09879823 C53.6889547,0.771421277 54.3381283,0.0521274181 55.1721389,0.0184696824 L55.2466067,0.0155246306 L55.2379118,0.0894314084 C55.2356679,0.109906531 54.9811313,2.12502321 53.1627721,2.83688432 C52.9236619,3.37148136 52.7280264,3.4957345 52.7172278,3.5023258 L52.6504733,3.39391985 Z" id="Fill-30" fill="#548292"></path>
                <path d="M58.7098755,2.58741038 C58.7098755,2.58741038 57.621188,3.89431221 54.9472211,3.06535023 C54.9472211,3.06535023 56.9138146,1.63068924 58.7098755,2.58741038" id="Fill-32" fill="#548292"></path>
                <path d="M55.1064783,3.04169164 C57.2637989,3.66253662 58.3384624,2.84549509 58.5956636,2.60582397 C57.1297289,1.88751179 55.5464129,2.76401532 55.1064783,3.04169164 M54.9269704,3.13060416 L54.7969674,3.09035512 L54.906916,3.01013752 C54.9269704,2.99541226 56.9290447,1.56103176 58.7420747,2.52714901 L58.816262,2.56655661 L58.7624096,2.63120751 C58.7279104,2.67257848 58.0899561,3.41178649 56.6216374,3.41178649 C56.1463621,3.41178649 55.5838572,3.33423346 54.9269704,3.13060416" id="Fill-34" fill="#548292"></path>
                <path d="M48.4732678,6.83386665 C46.4741386,4.16831422 42.3593402,3.32981588 40.084498,3.06728555 L40.0958574,2.96995859 C42.3862664,3.23431206 46.5303751,4.08024315 48.5518026,6.77524609 L48.4732678,6.83386665 Z" id="Fill-36" fill="#548292"></path>
                <path d="M40.1234147,3.03648872 C42.4027446,3.30322627 46.4757514,4.14424894 48.4802098,6.78497879 L48.5026482,6.76814992 C46.4915985,4.11928612 42.4103176,3.2760196 40.1266402,3.00886133 L40.1234147,3.03648872 Z M48.4663259,6.8828667 L48.4451496,6.85495883 C46.4540141,4.19978421 42.3497337,3.36395044 40.0805011,3.1021213 L40.0455812,3.09805433 L40.0649344,2.93116805 L40.0998543,2.93509479 C42.3958728,3.20014946 46.5504996,4.04860488 48.5797806,6.75412586 L48.6009569,6.78217397 L48.4663259,6.8828667 Z" id="Fill-38" fill="#548292"></path>
                <path d="M46.9735633,5.3240227 C46.9735633,5.3240227 46.6487661,5.54616375 45.483928,5.38404566 C44.3192301,5.22178733 43.284395,5.39217961 42.8785388,6.19687997 C42.8785388,6.19687997 44.8020784,6.81576159 46.193405,5.44280646" id="Fill-40" fill="#548292"></path>
                <path d="M42.972528,6.15689739 C43.3250928,6.24735255 44.8565198,6.55644276 46.037766,5.50141299 C45.8757882,5.49384 45.6892682,5.47687089 45.4751209,5.44699965 C44.5845933,5.32288675 43.4399498,5.34953246 42.972528,6.15689739 M43.9091947,6.39614779 C43.3040567,6.39614779 42.868189,6.26039493 42.8590734,6.25744988 L42.7882519,6.23459066 L42.8216292,6.16825688 C43.1976141,5.42301851 44.120958,5.12963525 45.4927912,5.32092338 C46.6050391,5.47602945 46.9350252,5.27296111 46.9382507,5.27099774 L47.0094929,5.37659889 C46.9989749,5.38375115 46.8033393,5.50996766 46.2192373,5.50646165 C45.4787672,6.22547503 44.5875384,6.39600755 43.9091947,6.39614779" id="Fill-42" fill="#548292"></path>
                <path d="M44.1851742,3.93297653 C44.1851742,3.93297653 43.860377,4.15511759 42.6955389,3.99299949 C41.530841,3.83074116 40.4960058,4.00113345 40.0901497,4.80583381 C40.0901497,4.80583381 42.0136892,5.42485566 43.4050159,4.05176029" id="Fill-44" fill="#548292"></path>
                <path d="M40.1841529,4.76579513 C40.5368579,4.85611005 42.0680044,5.16548074 43.2493909,4.11045097 C43.0875533,4.10273774 42.9008931,4.08590887 42.686886,4.05603763 C41.7962182,3.93192473 40.6515747,3.95857043 40.1841529,4.76579513 M41.1209599,5.00490529 C40.5158218,5.00490529 40.0798139,4.86929266 40.0706983,4.86634761 L39.9997366,4.8434884 L40.0332541,4.77715461 C40.409239,4.03191625 41.3327231,3.73923419 42.7044161,3.92996136 C43.816664,4.08478694 44.1467903,3.88185884 44.1498756,3.87989548 L44.2211178,3.98549662 C44.21074,3.99264889 44.0103362,4.11830444 43.4308622,4.11549963 C42.690392,4.834513 41.7994437,5.00490529 41.1209599,5.00490529" id="Fill-46" fill="#548292"></path>
                <path d="M46.1536188,4.78907506 C46.1536188,4.78907506 45.8124135,4.59287851 45.4531172,3.4730576 C45.0938208,2.35323668 44.4913474,1.49496443 43.5903017,1.47841604 C43.5903017,1.47841604 43.8672768,3.48006963 45.7080745,4.13765764" id="Fill-48" fill="#548292"></path>
                <path d="M43.6671536,1.54560529 C43.7388165,1.90251753 44.1246183,3.41627419 45.5876079,4.02309512 C45.5242191,3.87373892 45.4585865,3.69829797 45.3925332,3.49256506 C45.117802,2.63625617 44.5970887,1.61642678 43.6671536,1.54560529 L43.6671536,1.54560529 Z M46.1217842,4.84420363 C46.1107052,4.83803304 45.912405,4.71798712 45.6617951,4.18857899 C43.8281497,3.51668644 43.5299983,1.50745986 43.5271935,1.48712498 L43.5169559,1.41335844 L43.5914237,1.41462061 C44.4259953,1.43004707 45.0905953,2.13517663 45.5137011,3.45357818 C45.8568697,4.52305273 46.1827888,4.7324319 46.1860143,4.73439526 L46.1217842,4.84420363 Z" id="Fill-50" fill="#548292"></path>
                <path d="M42.525371,3.43241588 C42.525371,3.43241588 42.1885131,3.22878658 41.8537589,2.10139268 C41.5190047,0.974139014 40.9353234,0.102824382 40.0348388,0.0666423166 C40.0348388,0.0666423166 40.2680588,2.07376529 42.0941312,2.7714621" id="Fill-52" fill="#548292"></path>
                <path d="M40.1101199,0.135668723 C40.1740696,0.493843126 40.5267746,2.01587398 41.9761609,2.65424903 C41.9161379,2.50363067 41.8542918,2.32692755 41.7928665,2.119652 C41.5366469,1.25759324 41.0385125,0.22668485 40.1101199,0.135668723 L40.1101199,0.135668723 Z M42.4923864,3.48685727 C42.4815879,3.48026596 42.285812,3.35601282 42.0467019,2.82141579 C40.2283427,2.10969492 39.9739463,0.0944379966 39.9715622,0.0741031147 L39.9630076,5.60962261e-05 L40.0373351,0.0030011481 C40.8714859,0.0366588837 41.5206595,0.755952743 41.9147355,2.08332969 C42.234484,3.15995651 42.5557751,3.3763477 42.5590007,3.37845131 L42.4923864,3.48685727 Z" id="Fill-54" fill="#548292"></path>
                <path d="M36.4996125,2.57194185 C36.4996125,2.57194185 37.5883,3.87884367 40.2624071,3.04988169 C40.2624071,3.04988169 38.2958137,1.61522071 36.4996125,2.57194185" id="Fill-56" fill="#548292"></path>
                <path d="M36.6138385,2.59035543 C36.8711799,2.82988632 37.9457031,3.64706809 40.1030237,3.02622311 C39.6630891,2.74840655 38.0797731,1.87204326 36.6138385,2.59035543 M38.5878647,3.3964582 C37.1194057,3.3964582 36.4815916,2.65710994 36.4470924,2.61573897 L36.3932401,2.55108807 L36.4675676,2.51154023 C38.2804574,1.54556322 40.2825317,2.98008396 40.3025861,2.99466898 L40.4125347,3.07502683 L40.2825317,3.11513563 C39.6256449,3.31890517 39.0631399,3.3964582 38.5878647,3.3964582" id="Fill-58" fill="#548292"></path>
                <path d="M1.70735876,17.2542595 L1.70735876,23.5350735 L3.38155063,23.5350735 L3.38155063,23.5088485 C3.73341421,23.4855686 4.17054405,23.185594 4.69308039,22.6092053 C5.2704508,21.9800861 5.55920612,21.2319027 5.55920612,20.3642343 C5.55920612,19.5080657 5.27171297,18.7758697 4.69728761,18.1672256 C4.12258178,17.5587218 3.43105555,17.2542595 2.62298941,17.2542595 L1.70735876,17.2542595 Z M1.70735876,13.1837771 L1.70735876,15.3938282 L2.82086885,15.3938282 C3.07372259,15.3705483 3.29081498,15.2685934 3.47228627,15.0879635 C3.67030595,14.8958339 3.76931579,14.6368096 3.76931579,14.3106101 C3.76931579,13.9844105 3.66637922,13.7151486 3.4599451,13.5025439 C3.25379147,13.2899392 2.99112089,13.1837771 2.67235409,13.1837771 L1.70735876,13.1837771 Z M2.67235409,11.3755153 C3.43652493,11.3755153 4.09102765,11.6623072 4.63530128,12.2358911 C5.17971516,12.8096153 5.45206233,13.5011415 5.45206233,14.3106101 C5.45206233,15.1433585 5.05616322,15.6588829 4.26408451,15.8567623 C4.83612577,15.9439919 5.48628103,16.3750914 6.21497101,17.1494998 C6.94310002,17.9241887 7.30744501,18.9956266 7.30744501,20.3642343 C7.30744501,21.7327017 6.85390702,22.9147895 5.94683105,23.9104975 C5.09430865,24.8484264 4.23954241,25.3228602 3.38155063,25.3346404 L3.38155063,25.3520302 L7.01202826e-05,25.3520302 L7.01202826e-05,11.3755153 L2.67235409,11.3755153 Z" id="Fill-60" fill="#548292"></path>
                <path d="M14.781019,18.4074717 C14.2063132,19.0187803 13.9191005,19.7526592 13.9191005,20.6086876 C13.9191005,21.4707464 14.2063132,22.204485 14.781019,22.8100438 C15.3554444,23.4157428 16.0496351,23.7183819 16.8635914,23.7183819 C17.6771269,23.7183819 18.3714579,23.4157428 18.9461638,22.8100438 C19.5204489,22.204485 19.8080823,21.4707464 19.8080823,20.6086876 C19.8080823,19.7526592 19.5204489,19.0187803 18.9461638,18.4074717 C18.3714579,17.7958826 17.6771269,17.4901582 16.8635914,17.4901582 C16.0496351,17.4901582 15.3554444,17.7958826 14.781019,18.4074717 M16.8635914,15.6294464 C18.1610971,15.6294464 19.2680159,16.1159409 20.1832258,17.088369 C21.0988565,18.0610775 21.5566017,19.2343301 21.5566017,20.6086876 C21.5566017,21.9831854 21.0988565,23.156438 20.1832258,24.1290063 C19.2680159,25.1015746 18.1610971,25.5877887 16.8635914,25.5877887 C15.5712746,25.5877887 14.4661789,25.1015746 13.5478837,24.1290063 C12.6295885,23.156438 12.1705811,21.9831854 12.1705811,20.6086876 C12.1705811,19.2343301 12.6295885,18.0610775 13.5478837,17.088369 C14.4661789,16.1159409 15.5712746,15.6294464 16.8635914,15.6294464" id="Fill-62" fill="#548292"></path>
                <path d="M34.2797306,21.2813094 L34.2797306,19.9448168 C34.1807208,19.3800681 33.913843,18.8674888 33.4793777,18.4074998 C32.9074767,17.7959107 32.2146883,17.4901862 31.4011528,17.4901862 C30.5871965,17.4901862 29.8930057,17.7959107 29.3185804,18.4074998 C28.7438745,19.0188084 28.4568021,19.7526873 28.4568021,20.6087157 C28.4568021,21.4707744 28.7438745,22.2045131 29.3185804,22.8099316 C29.8930057,23.4157708 30.5871965,23.71841 31.4011528,23.71841 C32.2146883,23.71841 32.9074767,23.4157708 33.4793777,22.8099316 C33.913843,22.3500828 34.1807208,21.8403083 34.2797306,21.2813094 M34.2797306,16.9834971 L34.2797306,11.3754171 L35.9951532,11.3754171 L35.9951532,25.3519321 L34.2797306,25.3519321 L34.2797306,24.2339343 C33.4548356,25.1365226 32.4951694,25.5878167 31.4011528,25.5878167 C30.1033666,25.5878167 28.9968685,25.1016027 28.0815183,24.1290344 C27.1658877,23.156466 26.7081425,21.9830732 26.7081425,20.6087157 C26.7081425,19.2343581 27.1658877,18.0611056 28.0815183,17.088397 C28.9968685,16.1158287 30.1033666,15.6294744 31.4011528,15.6294744 C32.4951694,15.6294744 33.4548356,16.0809088 34.2797306,16.9834971" id="Fill-64" fill="#548292"></path>
                <path d="M49.2046084,21.2813094 L49.2046084,19.9535118 C49.1057388,19.388763 48.841806,18.876324 48.4128101,18.4160544 C47.8357202,17.8106359 47.1426513,17.5075761 46.3345852,17.5075761 C45.520629,17.5075761 44.8264382,17.8106359 44.2520128,18.4160544 C43.677307,19.0218937 43.3902345,19.7556323 43.3902345,20.6175508 C43.3902345,21.473439 43.677307,22.2060557 44.2520128,22.8144193 C44.8264382,23.4229231 45.520629,23.7271049 46.3345852,23.7271049 C47.1426513,23.7271049 47.8357202,23.4244658 48.4128101,22.8187667 C48.841806,22.3589179 49.1057388,21.8461984 49.2046084,21.2813094 M49.2046084,16.9923322 L49.2046084,16.3633533 L50.9204517,16.3633533 L50.9204517,25.3607672 L49.2046084,25.3607672 L49.2046084,24.2339343 C48.3801341,25.1365226 47.4232727,25.5878167 46.3345852,25.5878167 C45.036799,25.5878167 43.930301,25.1030051 43.0149508,24.1333818 C42.0993201,23.1637585 41.6415749,21.9919084 41.6415749,20.6175508 C41.6415749,19.2431933 42.0993201,18.0710627 43.0149508,17.1014394 C43.930301,16.1318161 45.036799,15.6470045 46.3345852,15.6470045 C47.4232727,15.6470045 48.3801341,16.0954938 49.2046084,16.9923322" id="Fill-66" fill="#548292"></path>
                <polygon id="Fill-68" fill="#548292" points="58.7441082 11.3754592 63.0248112 19.2111203 67.2889658 11.3754592 68.84788 11.3754592 68.84788 25.3519742 67.1404511 25.3519742 67.1404511 15.2539523 63.0248112 22.8012788 58.8924827 15.2539523 58.8924827 25.3519742 57.1854746 25.3519742 57.1854746 11.3754592"></polygon>
                <path d="M82.4613261,21.2813094 L82.4613261,19.9535118 C82.3623163,19.388763 82.0985238,18.876324 81.6695279,18.4160544 C81.092438,17.8106359 80.3993691,17.5075761 79.5911627,17.5075761 C78.7772065,17.5075761 78.0830157,17.8106359 77.5087306,18.4160544 C76.9340247,19.0218937 76.646812,19.7556323 76.646812,20.6175508 C76.646812,21.473439 76.9340247,22.2060557 77.5087306,22.8144193 C78.0830157,23.4229231 78.7772065,23.7271049 79.5911627,23.7271049 C80.3993691,23.7271049 81.092438,23.4244658 81.6695279,22.8187667 C82.0985238,22.3589179 82.3623163,21.8461984 82.4613261,21.2813094 M82.4613261,16.9923322 L82.4613261,16.3633533 L84.1770292,16.3633533 L84.1770292,25.3607672 L82.4613261,25.3607672 L82.4613261,24.2339343 C81.6367116,25.1365226 80.6798502,25.5878167 79.5911627,25.5878167 C78.2933765,25.5878167 77.1868785,25.1030051 76.2715283,24.1333818 C75.3558976,23.1637585 74.8981524,21.9919084 74.8981524,20.6175508 C74.8981524,19.2431933 75.3558976,18.0710627 76.2715283,17.1014394 C77.1868785,16.1318161 78.2933765,15.6470045 79.5911627,15.6470045 C80.6798502,15.6470045 81.6367116,16.0954938 82.4613261,16.9923322" id="Fill-70" fill="#548292"></path>
                <g id="Group-74" transform="translate(89.753962, 15.965547)">
                    <mask id="mask-4" fill="white">
                        <use xlink:href="#path-3"></use>
                    </mask>
                    <g id="Clip-73"></g>
                    <path d="M1.99953595,7.45594575 C2.20302501,7.66560539 2.44493999,7.77050533 2.72542112,7.77050533 C3.00604249,7.77050533 3.24641482,7.66560539 3.44709907,7.45594575 C3.64778332,7.24642634 3.74819556,6.98726178 3.74819556,6.67859229 C3.74819556,6.38142253 3.64932596,6.12814807 3.45144653,5.91848843 C3.31373029,5.77305896 3.01950559,5.54867406 2.56891265,5.24589468 C1.95283585,4.89066533 1.515706,4.57624598 1.25738288,4.3024964 C0.806509466,3.82497727 0.581002638,3.25139336 0.581002638,2.58174466 C0.581002638,1.90620586 0.806509466,1.32813425 1.25738288,0.847670072 C1.70811606,0.367205896 2.25252993,0.126973808 2.89034402,0.126973808 C3.52801787,0.126973808 4.05882841,0.354163523 4.48221468,0.808402714 C4.78457334,1.12871216 4.97698339,1.48688657 5.05958509,1.88292592 L3.40180137,2.38961509 C3.36337545,2.24390514 3.32466906,2.14784035 3.28652362,2.10114024 C3.18751378,1.99638054 3.05540717,1.94407081 2.89034402,1.94407081 C2.72542112,1.94407081 2.58405863,2.0066181 2.46555535,2.13185293 C2.3474728,2.25708775 2.28829128,2.40700492 2.28829128,2.58174466 C2.28829128,2.75634416 2.34607039,2.90485892 2.46162862,3.0271487 C2.56610784,3.1319084 2.80269367,3.30973344 3.17082516,3.5599226 C3.85267478,3.9561022 4.3474435,4.31708141 4.65555202,4.64314073 C5.18874665,5.21406007 5.45562444,5.89240368 5.45562444,6.67859229 C5.45562444,7.48217073 5.19028929,8.16780685 4.659619,8.73578114 C4.1289487,9.30347495 3.48440306,9.5874621 2.72542112,9.5874621 C1.9720488,9.5874621 1.32876533,9.30207255 0.795570702,8.73143369 C0.427018497,8.34114419 0.185103522,7.85493015 0.0696855369,7.27237085 L1.76884022,6.8881117 C1.81834514,7.15597118 1.89519697,7.34529594 1.99953595,7.45594575" id="Fill-72" fill="#548292" mask="url(#mask-4)"></path>
                </g>
            </g>
        </g>
    </g>
</svg>